<?xml version="1.0" ?>
<mxfile host="65bd71144e">
	<diagram id="RFndyrCF2-3MIdXtw8gX" name="Page-1">
		<mxGraphModel dx="422" dy="816" grid="1" gridSize="10" guides="1" tooltips="1" connect="1" arrows="1" fold="1" page="1" pageScale="1" pageWidth="850" pageHeight="1100" math="0" shadow="0">
			<root>
				<mxCell id="0"/>
				<mxCell id="1" parent="0"/>
				<mxCell id="5587217296" value="&lt;b&gt;Module&lt;/b&gt;" style="rounded=1;whiteSpace=wrap;html=1;fillColor=#CC99FF;strokeColor=#000000;" parent="1" vertex="1">
					<mxGeometry x="392.0" y="0.0" width="120" height="120" as="geometry"/>
				</mxCell>
				<mxCell id="5587215952" value="&lt;b&gt;FunctionDef&lt;/b&gt;&lt;br&gt;name: main&lt;br&gt;lineno: 2&lt;br&gt;col_offset: 0&lt;br&gt;end_lineno: 7&lt;br&gt;end_col_offset: 14" style="rounded=1;whiteSpace=wrap;html=1;fillColor=#66B2FF;strokeColor=#000000;" parent="1" vertex="1">
					<mxGeometry x="392.0" y="144.0" width="120" height="120" as="geometry"/>
				</mxCell>
				<mxCell id="5587208320" value="&lt;b&gt;arguments&lt;/b&gt;" style="rounded=1;whiteSpace=wrap;html=1;fillColor=#E6E6E6;strokeColor=#000000;" parent="1" vertex="1">
					<mxGeometry x="590.0" y="288.0" width="120" height="120" as="geometry"/>
				</mxCell>
				<mxCell id="5587217488" value="&lt;b&gt;FunctionDef&lt;/b&gt;&lt;br&gt;name: plus&lt;br&gt;lineno: 3&lt;br&gt;col_offset: 4&lt;br&gt;end_lineno: 4&lt;br&gt;end_col_offset: 20" style="rounded=1;whiteSpace=wrap;html=1;fillColor=#66B2FF;strokeColor=#000000;" parent="1" vertex="1">
					<mxGeometry x="458.0" y="288.0" width="120" height="120" as="geometry"/>
				</mxCell>
				<mxCell id="5587208752" value="&lt;b&gt;arguments&lt;/b&gt;" style="rounded=1;whiteSpace=wrap;html=1;fillColor=#E6E6E6;strokeColor=#000000;" parent="1" vertex="1">
					<mxGeometry x="590.0" y="432.0" width="120" height="120" as="geometry"/>
				</mxCell>
				<mxCell id="5587217344" value="&lt;b&gt;arg&lt;/b&gt;&lt;br&gt;arg: a&lt;br&gt;lineno: 3&lt;br&gt;col_offset: 13&lt;br&gt;end_lineno: 3&lt;br&gt;end_col_offset: 14" style="rounded=1;whiteSpace=wrap;html=1;fillColor=#E6E6E6;strokeColor=#000000;" parent="1" vertex="1">
					<mxGeometry x="721.999" y="576.0" width="120" height="120" as="geometry"/>
				</mxCell>
				<mxCell id="5590068016" value="&lt;b&gt;arg&lt;/b&gt;&lt;br&gt;arg: b&lt;br&gt;lineno: 3&lt;br&gt;col_offset: 16&lt;br&gt;end_lineno: 3&lt;br&gt;end_col_offset: 17" style="rounded=1;whiteSpace=wrap;html=1;fillColor=#E6E6E6;strokeColor=#000000;" parent="1" vertex="1">
					<mxGeometry x="590.0" y="576.0" width="120" height="120" as="geometry"/>
				</mxCell>
				<mxCell id="5590065808" value="&lt;b&gt;Return&lt;/b&gt;&lt;br&gt;lineno: 4&lt;br&gt;col_offset: 8&lt;br&gt;end_lineno: 4&lt;br&gt;end_col_offset: 20" style="rounded=1;whiteSpace=wrap;html=1;fillColor=#D6FFC9;strokeColor=#000000;" parent="1" vertex="1">
					<mxGeometry x="458.0" y="432.0" width="120" height="120" as="geometry"/>
				</mxCell>
				<mxCell id="5590058320" value="&lt;b&gt;BinOp&lt;/b&gt;&lt;br&gt;lineno: 4&lt;br&gt;col_offset: 15&lt;br&gt;end_lineno: 4&lt;br&gt;end_col_offset: 20" style="rounded=1;whiteSpace=wrap;html=1;fillColor=#CCCCFF;strokeColor=#000000;" parent="1" vertex="1">
					<mxGeometry x="458.0" y="576.0" width="120" height="120" as="geometry"/>
				</mxCell>
				<mxCell id="5590071232" value="&lt;b&gt;Name&lt;/b&gt;&lt;br&gt;id: a&lt;br&gt;lineno: 4&lt;br&gt;col_offset: 15&lt;br&gt;end_lineno: 4&lt;br&gt;end_col_offset: 16" style="rounded=1;whiteSpace=wrap;html=1;fillColor=#CCE5FF;strokeColor=#000000;" parent="1" vertex="1">
					<mxGeometry x="590.0" y="720.0" width="120" height="120" as="geometry"/>
				</mxCell>
				<mxCell id="4310303600" value="&lt;b&gt;Load&lt;/b&gt;" style="rounded=1;whiteSpace=wrap;html=1;fillColor=#E6E6E6;strokeColor=#000000;" parent="1" vertex="1">
					<mxGeometry x="260.0" y="864.0" width="120" height="120" as="geometry"/>
				</mxCell>
				<mxCell id="4310304176" value="&lt;b&gt;Add&lt;/b&gt;" style="rounded=1;whiteSpace=wrap;html=1;fillColor=#E6E6E6;strokeColor=#000000;" parent="1" vertex="1">
					<mxGeometry x="458.0" y="720.0" width="120" height="120" as="geometry"/>
				</mxCell>
				<mxCell id="5590069792" value="&lt;b&gt;Name&lt;/b&gt;&lt;br&gt;id: b&lt;br&gt;lineno: 4&lt;br&gt;col_offset: 19&lt;br&gt;end_lineno: 4&lt;br&gt;end_col_offset: 20" style="rounded=1;whiteSpace=wrap;html=1;fillColor=#CCE5FF;strokeColor=#000000;" parent="1" vertex="1">
					<mxGeometry x="326.0" y="720.0" width="120" height="120" as="geometry"/>
				</mxCell>
				<mxCell id="5590059904" value="&lt;b&gt;Assign&lt;/b&gt;&lt;br&gt;lineno: 6&lt;br&gt;col_offset: 4&lt;br&gt;end_lineno: 6&lt;br&gt;end_col_offset: 20" style="rounded=1;whiteSpace=wrap;html=1;fillColor=#D6FFC9;strokeColor=#000000;" parent="1" vertex="1">
					<mxGeometry x="326.0" y="288.0" width="120" height="120" as="geometry"/>
				</mxCell>
				<mxCell id="5590071520" value="&lt;b&gt;Name&lt;/b&gt;&lt;br&gt;id: res&lt;br&gt;lineno: 6&lt;br&gt;col_offset: 4&lt;br&gt;end_lineno: 6&lt;br&gt;end_col_offset: 7" style="rounded=1;whiteSpace=wrap;html=1;fillColor=#CCE5FF;strokeColor=#000000;" parent="1" vertex="1">
					<mxGeometry x="326.0" y="432.0" width="120" height="120" as="geometry"/>
				</mxCell>
				<mxCell id="4310303696" value="&lt;b&gt;Store&lt;/b&gt;" style="rounded=1;whiteSpace=wrap;html=1;fillColor=#E6E6E6;strokeColor=#000000;" parent="1" vertex="1">
					<mxGeometry x="326.0" y="576.0" width="120" height="120" as="geometry"/>
				</mxCell>
				<mxCell id="5590071040" value="&lt;b&gt;Call&lt;/b&gt;&lt;br&gt;lineno: 6&lt;br&gt;col_offset: 10&lt;br&gt;end_lineno: 6&lt;br&gt;end_col_offset: 20" style="rounded=1;whiteSpace=wrap;html=1;fillColor=#FFCCFF;strokeColor=#000000;" parent="1" vertex="1">
					<mxGeometry x="175.0" y="432.0" width="120" height="120" as="geometry"/>
				</mxCell>
				<mxCell id="5590071616" value="&lt;b&gt;Name&lt;/b&gt;&lt;br&gt;id: plus&lt;br&gt;lineno: 6&lt;br&gt;col_offset: 10&lt;br&gt;end_lineno: 6&lt;br&gt;end_col_offset: 14" style="rounded=1;whiteSpace=wrap;html=1;fillColor=#CCE5FF;strokeColor=#000000;" parent="1" vertex="1">
					<mxGeometry x="194.0" y="720.0" width="120" height="120" as="geometry"/>
				</mxCell>
				<mxCell id="5590064368" value="&lt;b&gt;Constant&lt;/b&gt;&lt;br&gt;value: 1&lt;br&gt;lineno: 6&lt;br&gt;col_offset: 15&lt;br&gt;end_lineno: 6&lt;br&gt;end_col_offset: 16" style="rounded=1;whiteSpace=wrap;html=1;fillColor=#FFFFFF;strokeColor=#000000;" parent="1" vertex="1">
					<mxGeometry x="156.0" y="576.0" width="120" height="120" as="geometry"/>
				</mxCell>
				<mxCell id="5590061200" value="&lt;b&gt;Constant&lt;/b&gt;&lt;br&gt;value: 2&lt;br&gt;lineno: 6&lt;br&gt;col_offset: 18&lt;br&gt;end_lineno: 6&lt;br&gt;end_col_offset: 19" style="rounded=1;whiteSpace=wrap;html=1;fillColor=#FFFFFF;strokeColor=#000000;" parent="1" vertex="1">
					<mxGeometry x="24.0" y="576.0" width="120" height="120" as="geometry"/>
				</mxCell>
				<mxCell id="5590064320" value="&lt;b&gt;Return&lt;/b&gt;&lt;br&gt;lineno: 7&lt;br&gt;col_offset: 4&lt;br&gt;end_lineno: 7&lt;br&gt;end_col_offset: 14" style="rounded=1;whiteSpace=wrap;html=1;fillColor=#D6FFC9;strokeColor=#000000;" parent="1" vertex="1">
					<mxGeometry x="66.0" y="288.0" width="120" height="120" as="geometry"/>
				</mxCell>
				<mxCell id="5590070128" value="&lt;b&gt;Name&lt;/b&gt;&lt;br&gt;id: res&lt;br&gt;lineno: 7&lt;br&gt;col_offset: 11&lt;br&gt;end_lineno: 7&lt;br&gt;end_col_offset: 14" style="rounded=1;whiteSpace=wrap;html=1;fillColor=#CCE5FF;strokeColor=#000000;" parent="1" vertex="1">
					<mxGeometry x="0.0" y="720.0" width="120" height="120" as="geometry"/>
				</mxCell>
				<mxCell id="5587217296_5587215952" value="['body', 0]" style="endArrow=classic;html=1;" parent="1" source="5587217296" target="5587215952" edge="1">
					<mxGeometry width="50" height="50" relative="1" as="geometry">
						<mxPoint x="400" y="440" as="sourcePoint"/>
						<mxPoint x="450" y="390" as="targetPoint"/>
					</mxGeometry>
				</mxCell>
				<mxCell id="5587215952_5587208320" value="['args']" style="endArrow=classic;html=1;" parent="1" source="5587215952" target="5587208320" edge="1">
					<mxGeometry width="50" height="50" relative="1" as="geometry">
						<mxPoint x="400" y="440" as="sourcePoint"/>
						<mxPoint x="450" y="390" as="targetPoint"/>
					</mxGeometry>
				</mxCell>
				<mxCell id="5587215952_5587217488" value="['body', 0]" style="endArrow=classic;html=1;" parent="1" source="5587215952" target="5587217488" edge="1">
					<mxGeometry width="50" height="50" relative="1" as="geometry">
						<mxPoint x="400" y="440" as="sourcePoint"/>
						<mxPoint x="450" y="390" as="targetPoint"/>
					</mxGeometry>
				</mxCell>
				<mxCell id="5587217488_5587208752" value="['args']" style="endArrow=classic;html=1;" parent="1" source="5587217488" target="5587208752" edge="1">
					<mxGeometry width="50" height="50" relative="1" as="geometry">
						<mxPoint x="400" y="440" as="sourcePoint"/>
						<mxPoint x="450" y="390" as="targetPoint"/>
					</mxGeometry>
				</mxCell>
				<mxCell id="5587208752_5587217344" value="['args', 0]" style="endArrow=classic;html=1;" parent="1" source="5587208752" target="5587217344" edge="1">
					<mxGeometry width="50" height="50" relative="1" as="geometry">
						<mxPoint x="400" y="440" as="sourcePoint"/>
						<mxPoint x="450" y="390" as="targetPoint"/>
					</mxGeometry>
				</mxCell>
				<mxCell id="5587208752_5590068016" value="['args', 1]" style="endArrow=classic;html=1;" parent="1" source="5587208752" target="5590068016" edge="1">
					<mxGeometry width="50" height="50" relative="1" as="geometry">
						<mxPoint x="400" y="440" as="sourcePoint"/>
						<mxPoint x="450" y="390" as="targetPoint"/>
					</mxGeometry>
				</mxCell>
				<mxCell id="5587217488_5590065808" value="['body', 0]" style="endArrow=classic;html=1;" parent="1" source="5587217488" target="5590065808" edge="1">
					<mxGeometry width="50" height="50" relative="1" as="geometry">
						<mxPoint x="400" y="440" as="sourcePoint"/>
						<mxPoint x="450" y="390" as="targetPoint"/>
					</mxGeometry>
				</mxCell>
				<mxCell id="5590065808_5590058320" value="['value']" style="endArrow=classic;html=1;" parent="1" source="5590065808" target="5590058320" edge="1">
					<mxGeometry width="50" height="50" relative="1" as="geometry">
						<mxPoint x="400" y="440" as="sourcePoint"/>
						<mxPoint x="450" y="390" as="targetPoint"/>
					</mxGeometry>
				</mxCell>
				<mxCell id="5590058320_5590071232" value="['left']" style="endArrow=classic;html=1;" parent="1" source="5590058320" target="5590071232" edge="1">
					<mxGeometry width="50" height="50" relative="1" as="geometry">
						<mxPoint x="400" y="440" as="sourcePoint"/>
						<mxPoint x="450" y="390" as="targetPoint"/>
					</mxGeometry>
				</mxCell>
				<mxCell id="5590071232_4310303600" value="['ctx']" style="endArrow=classic;html=1;" parent="1" source="5590071232" target="4310303600" edge="1">
					<mxGeometry width="50" height="50" relative="1" as="geometry">
						<mxPoint x="400" y="440" as="sourcePoint"/>
						<mxPoint x="450" y="390" as="targetPoint"/>
					</mxGeometry>
				</mxCell>
				<mxCell id="5590058320_4310304176" value="['op']" style="endArrow=classic;html=1;" parent="1" source="5590058320" target="4310304176" edge="1">
					<mxGeometry width="50" height="50" relative="1" as="geometry">
						<mxPoint x="400" y="440" as="sourcePoint"/>
						<mxPoint x="450" y="390" as="targetPoint"/>
					</mxGeometry>
				</mxCell>
				<mxCell id="5590058320_5590069792" value="['right']" style="endArrow=classic;html=1;" parent="1" source="5590058320" target="5590069792" edge="1">
					<mxGeometry width="50" height="50" relative="1" as="geometry">
						<mxPoint x="400" y="440" as="sourcePoint"/>
						<mxPoint x="450" y="390" as="targetPoint"/>
					</mxGeometry>
				</mxCell>
				<mxCell id="5590069792_4310303600" value="['ctx']" style="endArrow=classic;html=1;" parent="1" source="5590069792" target="4310303600" edge="1">
					<mxGeometry width="50" height="50" relative="1" as="geometry">
						<mxPoint x="400" y="440" as="sourcePoint"/>
						<mxPoint x="450" y="390" as="targetPoint"/>
					</mxGeometry>
				</mxCell>
				<mxCell id="5587215952_5590059904" value="['body', 1]" style="endArrow=classic;html=1;" parent="1" source="5587215952" target="5590059904" edge="1">
					<mxGeometry width="50" height="50" relative="1" as="geometry">
						<mxPoint x="400" y="440" as="sourcePoint"/>
						<mxPoint x="450" y="390" as="targetPoint"/>
					</mxGeometry>
				</mxCell>
				<mxCell id="5590059904_5590071520" value="['targets', 0]" style="endArrow=classic;html=1;" parent="1" source="5590059904" target="5590071520" edge="1">
					<mxGeometry width="50" height="50" relative="1" as="geometry">
						<mxPoint x="400" y="440" as="sourcePoint"/>
						<mxPoint x="450" y="390" as="targetPoint"/>
					</mxGeometry>
				</mxCell>
				<mxCell id="5590071520_4310303696" value="['ctx']" style="endArrow=classic;html=1;" parent="1" source="5590071520" target="4310303696" edge="1">
					<mxGeometry width="50" height="50" relative="1" as="geometry">
						<mxPoint x="400" y="440" as="sourcePoint"/>
						<mxPoint x="450" y="390" as="targetPoint"/>
					</mxGeometry>
				</mxCell>
				<mxCell id="5590059904_5590071040" value="['value']" style="endArrow=classic;html=1;" parent="1" source="5590059904" target="5590071040" edge="1">
					<mxGeometry width="50" height="50" relative="1" as="geometry">
						<mxPoint x="400" y="440" as="sourcePoint"/>
						<mxPoint x="450" y="390" as="targetPoint"/>
					</mxGeometry>
				</mxCell>
				<mxCell id="5590071040_5590071616" value="['func']" style="endArrow=classic;html=1;" parent="1" source="5590071040" target="5590071616" edge="1">
					<mxGeometry width="50" height="50" relative="1" as="geometry">
						<mxPoint x="400" y="440" as="sourcePoint"/>
						<mxPoint x="450" y="390" as="targetPoint"/>
					</mxGeometry>
				</mxCell>
				<mxCell id="5590071616_4310303600" value="['ctx']" style="endArrow=classic;html=1;" parent="1" source="5590071616" target="4310303600" edge="1">
					<mxGeometry width="50" height="50" relative="1" as="geometry">
						<mxPoint x="400" y="440" as="sourcePoint"/>
						<mxPoint x="450" y="390" as="targetPoint"/>
					</mxGeometry>
				</mxCell>
				<mxCell id="5590071040_5590064368" value="['args', 0]" style="endArrow=classic;html=1;" parent="1" source="5590071040" target="5590064368" edge="1">
					<mxGeometry width="50" height="50" relative="1" as="geometry">
						<mxPoint x="400" y="440" as="sourcePoint"/>
						<mxPoint x="450" y="390" as="targetPoint"/>
					</mxGeometry>
				</mxCell>
				<mxCell id="5590071040_5590061200" value="['args', 1]" style="endArrow=classic;html=1;" parent="1" source="5590071040" target="5590061200" edge="1">
					<mxGeometry width="50" height="50" relative="1" as="geometry">
						<mxPoint x="400" y="440" as="sourcePoint"/>
						<mxPoint x="450" y="390" as="targetPoint"/>
					</mxGeometry>
				</mxCell>
				<mxCell id="5587215952_5590064320" value="['body', 2]" style="endArrow=classic;html=1;" parent="1" source="5587215952" target="5590064320" edge="1">
					<mxGeometry width="50" height="50" relative="1" as="geometry">
						<mxPoint x="400" y="440" as="sourcePoint"/>
						<mxPoint x="450" y="390" as="targetPoint"/>
					</mxGeometry>
				</mxCell>
				<mxCell id="5590064320_5590070128" value="['value']" style="endArrow=classic;html=1;" parent="1" source="5590064320" target="5590070128" edge="1">
					<mxGeometry width="50" height="50" relative="1" as="geometry">
						<mxPoint x="400" y="440" as="sourcePoint"/>
						<mxPoint x="450" y="390" as="targetPoint"/>
					</mxGeometry>
				</mxCell>
				<mxCell id="5590070128_4310303600" value="['ctx']" style="endArrow=classic;html=1;" parent="1" source="5590070128" target="4310303600" edge="1">
					<mxGeometry width="50" height="50" relative="1" as="geometry">
						<mxPoint x="400" y="440" as="sourcePoint"/>
						<mxPoint x="450" y="390" as="targetPoint"/>
					</mxGeometry>
				</mxCell>
			</root>
		</mxGraphModel>
	</diagram>
</mxfile>
